<?xml version="1.0" encoding="utf-8"?>
<!-- Generator: Adobe Illustrator 27.2.0, SVG Export Plug-In . SVG Version: 6.00 Build 0)  -->
<svg version="1.1" id="Layer_1" xmlns="http://www.w3.org/2000/svg" xmlns:xlink="http://www.w3.org/1999/xlink" x="0px" y="0px"
	 viewBox="0 0 352.5 328.6" style="enable-background:new 0 0 352.5 328.6;" xml:space="preserve">
<style type="text/css">
	.st0{fill:#435183;}
</style>
<path d="M-143,221.8c0.2,0,0.5,0,0.8-0.1c-0.1,0.1-0.2,0.2-0.3,0.3C-142.6,222.1-143,221.8-143,221.8z"/>
<g>
	<path class="st0" d="M51.7,194c-23.6-30.4-24.4-67.1-2.1-98.6C68.2,69,95.7,55,124.7,44.3c51.5-19.1,103.7-16.3,155.6-1.3
		c18.4,5.3,36.2,12.8,54.2,19.3c-8.7-9.1-18.1-17.5-28.6-24C253.8,6,196.9-0.5,137.5,9.6C98.6,16.1,62.2,29.4,32.9,56.8
		c-36.4,33.9-38.4,84.3-5.1,121.1c9.1,10.1,20,18.6,30.1,27.7C55.8,201.7,54.3,197.4,51.7,194L51.7,194z"/>
	<path class="st0" d="M58.3,206.1c-0.2-0.2-0.4-0.3-0.6-0.5c0,0.1,0.1,0.2,0.1,0.2L58.3,206.1z"/>
	<path class="st0" d="M173.4,96c-32.3,6.4-62.6,18.1-85.4,43.3c-31.3,34.5-20.3,89.8,22.2,111.4c-0.5-1.4-0.6-2.7-1.2-3.6
		c-30-37.1-13.9-82.1,23.3-105.9c50.8-32.6,105-36,161.6-20.8c16.1,4.3,31.5,11,49.3,17.4c-3.4-3.4-5.1-5.6-7.3-7.3
		C287.6,92,232.4,84.3,173.4,96z"/>
	<path class="st0" d="M178.2,213.1c19.6-13.1,41.6-20.5,65-23.1c37.2-4.1,71.8,5.6,105.7,19.3c-46.6-39.3-99.5-44.3-155.7-27.6
		c-23.9,7.1-45.3,18.8-58.3,41.6c-15.5,27.2-3.6,66,22.8,75.6C132.6,260.3,152.6,230.2,178.2,213.1L178.2,213.1z"/>
	<path class="st0" d="M33.4,321.3c84.8,2.7,171,2.6,255.8,0.3l8.2-0.3l-8.2-0.3C204.3,318.7,118.2,318.6,33.4,321.3z"/>
</g>
</svg>
