<?xml version="1.0" encoding="utf-8"?>
<!-- Generator: Adobe Illustrator 27.2.0, SVG Export Plug-In . SVG Version: 6.00 Build 0)  -->
<svg version="1.1" id="Layer_1" xmlns="http://www.w3.org/2000/svg" xmlns:xlink="http://www.w3.org/1999/xlink" x="0px" y="0px"
	 viewBox="0 0 1124 191" style="enable-background:new 0 0 1124 191;" xml:space="preserve">
<style type="text/css">
	.st0{fill:#435183;}
	.st1{fill:#CE9E59;}
</style>
<g>
	<path class="st0" d="M951.9,109.2c-12.4-15.9-12.8-35.3-1.2-51.8c9.8-13.9,24.2-21.2,39.5-26.9c27.1-10.1,54.6-8.6,81.8-0.7
		c9.7,2.8,19,6.7,28.6,10.1c-4.6-4.8-9.5-9.2-15.1-12.6c-27.4-16.9-57.3-20.3-88.5-15c-20.4,3.5-39.6,10.4-55,24.8
		c-19.1,17.9-20.2,44.3-2.7,63.7c4.8,5.3,10.5,9.8,15.8,14.5C954,113.3,953.3,111,951.9,109.2L951.9,109.2z"/>
	<path class="st0" d="M955.4,115.6c-0.1-0.1-0.2-0.2-0.3-0.2c0,0.1,0.1,0.1,0.1,0.2L955.4,115.6z"/>
	<path class="st0" d="M1015.9,57.8c-16.9,3.4-32.9,9.5-44.9,22.8c-16.5,18.2-10.7,47.2,11.7,58.6c-0.2-0.8-0.3-1.4-0.6-1.9
		c-15.8-19.5-7.4-43.2,12.2-55.6c26.7-17.1,55.3-18.9,85-10.9c8.4,2.2,16.6,5.8,25.9,9.1c-1.8-1.8-2.7-2.9-3.8-3.8
		C1075.9,55.6,1046.8,51.6,1015.9,57.8z"/>
	<path class="st0" d="M1018.3,119.3c10.3-6.9,21.8-10.8,34.2-12.1c19.5-2.2,37.8,2.9,55.6,10.1c-24.5-20.7-52.3-23.3-81.9-14.5
		c-12.5,3.7-23.8,9.9-30.6,21.9c-8.1,14.3-1.9,34.7,12,39.7C994.4,144.1,1004.9,128.3,1018.3,119.3L1018.3,119.3z"/>
	<path class="st0" d="M942.3,176.2c44.6,1.4,89.8,1.4,134.5,0.2l4.3-0.2l-4.3-0.2C1032.1,174.9,986.9,174.8,942.3,176.2z"/>
</g>
<path d="M803,170.6c0.2,0,0.4,0,0.6,0c-0.1,0.1-0.2,0.2-0.3,0.3C803.4,170.8,803,170.6,803,170.6z"/>
<g>
	<path class="st0" d="M13.9,41.3c3-3,6.5-4.4,10.7-4.4h14.7v17.5c0,1.4,0.3,2.5,0.9,3.3c0.6,0.8,1.5,1.2,2.8,1.2h2v8.3h-2
		c-3.9,0-6.7-1.6-8.3-4.7c-2.5,3.1-5.8,4.7-10.1,4.7c-4.2,0-7.8-1.5-10.8-4.4s-4.4-6.5-4.4-10.7S10.9,44.3,13.9,41.3z M15.5,29.6
		c0-1.3,0.4-2.3,1.3-3.2s2-1.3,3.2-1.3c1.3,0,2.3,0.4,3.2,1.3c0.9,0.9,1.3,2,1.3,3.2c0,1.3-0.4,2.3-1.3,3.2s-2,1.3-3.2,1.3
		c-1.3,0-2.3-0.4-3.2-1.3C15.9,31.9,15.5,30.9,15.5,29.6z M19.7,56.9c1.3,1.3,3,2,4.9,2c1.8,0,3.3-0.6,4.5-1.9s1.8-2.9,1.8-5v-6.9
		h-6.3c-1.9,0-3.5,0.7-4.9,2c-1.3,1.3-2,3-2,4.9C17.7,53.9,18.4,55.5,19.7,56.9z M26.8,29.6c0-1.3,0.4-2.3,1.3-3.2
		C29,25.5,30,25,31.3,25s2.3,0.4,3.2,1.3c0.9,0.9,1.3,2,1.3,3.2c0,1.3-0.4,2.3-1.3,3.2c-0.9,0.9-2,1.3-3.2,1.3
		c-1.3,0-2.3-0.4-3.2-1.3C27.2,31.9,26.8,30.9,26.8,29.6z"/>
	<path class="st0" d="M43.7,67.2v-8.3h1.7c1.2,0,2.1-0.4,2.8-1.2c0.6-0.8,0.9-1.9,0.9-3.3V36.8h8.4v17.5c0,3.8-1.1,6.9-3.3,9.3
		s-5.1,3.6-8.8,3.6C45.4,67.2,43.7,67.2,43.7,67.2z M48.4,29.4c0-1.3,0.5-2.4,1.4-3.3c0.9-0.9,2-1.4,3.3-1.4s2.4,0.5,3.3,1.4
		c0.9,0.9,1.4,2,1.4,3.3s-0.5,2.4-1.4,3.3c-0.9,0.9-2,1.4-3.3,1.4s-2.4-0.5-3.3-1.4C48.8,31.8,48.4,30.7,48.4,29.4z"/>
	<path class="st0" d="M64.3,19.8h8.3v34.5c0,1.4,0.3,2.5,1,3.3c0.6,0.8,1.6,1.2,2.7,1.2h1.5v8.3h-1.5c-3.6,0-6.5-1.2-8.7-3.6
		s-3.3-5.5-3.3-9.3V19.8z"/>
	<path class="st0" d="M76.7,58.9h4.8c1.2,0,2.1-0.4,2.7-1.2c0.6-0.8,1-1.9,1-3.3V36.9l8.3-0.1v17.5c0,1.4,0.3,2.5,1,3.3
		c0.6,0.8,1.6,1.2,2.8,1.2h4.9v8.3h-4.9c-3.4,0-6.1-1.2-7.9-3.7c-1.9,2.5-4.5,3.7-7.9,3.7h-4.8V58.9z M79.2,75.8
		c0-1.3,0.4-2.3,1.3-3.2c0.9-0.9,2-1.3,3.2-1.3c1.3,0,2.3,0.4,3.2,1.3c0.9,0.9,1.3,1.9,1.3,3.2c0,1.3-0.4,2.3-1.3,3.2
		c-0.9,0.9-2,1.3-3.2,1.3c-1.3,0-2.3-0.4-3.2-1.3C79.7,78.1,79.2,77,79.2,75.8z M91.9,72.6c0.9-0.9,1.9-1.3,3.2-1.3
		c1.3,0,2.3,0.4,3.2,1.3c0.9,0.9,1.3,1.9,1.3,3.2c0,1.3-0.4,2.3-1.3,3.2c-0.9,0.9-2,1.3-3.2,1.3c-1.3,0-2.3-0.4-3.2-1.3
		c-0.9-0.9-1.3-2-1.3-3.2C90.5,74.5,91,73.5,91.9,72.6z"/>
	<path class="st0" d="M100.9,67.2v-8.3h5V36.8h8.3v7c4.8-4.7,9.7-7,14.7-7c4.3,0,7.9,1.5,10.7,4.5s4.2,6.8,4.2,11.5v1.6
		c0,3,1.1,4.4,3.3,4.4h1.7v8.3h-1.7c-3.3,0-5.8-1.3-7.7-3.9c-2,2.6-4.8,3.9-8.3,3.9L100.9,67.2L100.9,67.2z M114.3,58.9h17
		c1.2,0,2.2-0.4,3-1.2c0.8-0.8,1.2-2,1.2-3.5V53c0-2.4-0.7-4.3-2-5.7c-1.3-1.4-3.2-2.1-5.5-2.1c-4.1,0-8.6,2.7-13.7,8.2V58.9z"/>
	<path class="st0" d="M147.7,58.9h1.7c1.2,0,2.1-0.4,2.8-1.2c0.6-0.8,0.9-1.9,0.9-3.3V19.8h8.4v34.5c0,3.8-1.1,6.9-3.3,9.3
		s-5.1,3.6-8.8,3.6h-1.7L147.7,58.9L147.7,58.9z"/>
	<path class="st0" d="M178.6,67.2h-8.3V19.8h8.3V67.2z"/>
	<path class="st0" d="M189.8,41.1c3-3,6.5-4.4,10.8-4.4c4.5,0,8.2,1.5,11,4.6s4.3,7,4.3,11.8v12.4c0,4.6-1.4,8.4-4.1,11.4
		c-2.8,3-6.5,4.5-11.1,4.5c-2.5,0-5-0.5-7.4-1.6s-4.3-2.6-5.7-4.5l5.8-5.5c0.8,1,1.9,1.8,3.2,2.3c1.3,0.6,2.6,0.9,4,0.9
		c2,0,3.7-0.6,5-1.7s2-2.5,2-4.1H201c-4.5,0-8.2-1.5-11.2-4.4s-4.5-6.6-4.5-10.9C185.3,47.7,186.8,44.1,189.8,41.1z M193.7,51.9
		c0,2.1,0.7,3.7,2.1,5c1.4,1.3,3.1,1.9,5.3,1.9h6.4v-6.5c0-2.1-0.6-3.9-1.9-5.3c-1.3-1.4-2.9-2.1-5-2.1c-1.9,0-3.5,0.7-4.9,2
		S193.7,50,193.7,51.9z"/>
	<path class="st0" d="M237.1,42.9h8.3v20.7c0,2.8,0.8,5.1,2.4,6.8c1.6,1.7,3.6,2.6,6,2.6c2.4,0,4.5-0.9,6.1-2.6s2.4-4,2.4-6.8V19.8
		h8.3v34.5c0,1.4,0.3,2.5,1,3.3c0.6,0.8,1.6,1.2,2.8,1.2h1.9v8.3h-1.9c-1.5,0-2.8-0.5-3.9-1.5c-0.5,4.6-2.3,8.3-5.5,11.2
		c-3.2,2.9-6.9,4.4-11.2,4.4c-4.7,0-8.6-1.7-11.9-5.1c-3.3-3.4-4.9-7.6-4.9-12.7V42.9H237.1z"/>
	<path class="st0" d="M275.1,58.9h4.8c1.2,0,2.1-0.4,2.7-1.2c0.6-0.8,1-1.9,1-3.3V36.9l8.3-0.1v17.5c0,1.4,0.3,2.5,1,3.3
		c0.6,0.8,1.6,1.2,2.8,1.2h4.9v8.3h-4.9c-3.4,0-6.1-1.2-7.9-3.7c-1.9,2.5-4.5,3.7-7.9,3.7h-4.8V58.9z M277.7,75.8
		c0-1.3,0.4-2.3,1.3-3.2c0.9-0.9,2-1.3,3.2-1.3c1.3,0,2.3,0.4,3.2,1.3c0.9,0.9,1.3,1.9,1.3,3.2c0,1.3-0.4,2.3-1.3,3.2
		c-0.9,0.9-2,1.3-3.2,1.3c-1.3,0-2.3-0.4-3.2-1.3C278.1,78.1,277.7,77,277.7,75.8z M290.3,72.6c0.9-0.9,1.9-1.3,3.2-1.3
		c1.3,0,2.3,0.4,3.2,1.3c0.9,0.9,1.3,1.9,1.3,3.2c0,1.3-0.4,2.3-1.3,3.2c-0.9,0.9-2,1.3-3.2,1.3c-1.3,0-2.3-0.4-3.2-1.3
		c-0.9-0.9-1.3-2-1.3-3.2C289,74.5,289.4,73.5,290.3,72.6z"/>
	<path class="st0" d="M299.4,58.9h11.2L303.3,48V36.8h23.8c3.4,0,6.2,0.7,8.4,2.2c2.2,1.4,3.3,3.6,3.3,6.6c0,2.1-0.7,4.3-2,6.3
		c-1.3,2.1-3.2,4.4-5.6,7h11.5l0.1,8.3h-43.4L299.4,58.9L299.4,58.9z M320.5,58.9h1.3c1.5-1.6,2.5-2.7,3-3.3
		c0.5-0.6,1.2-1.4,2.1-2.5s1.5-2,1.8-2.7s0.5-1.3,0.5-1.9c0-1.3-0.4-2.2-1.3-2.6c-0.9-0.5-2.2-0.7-4.1-0.7h-10.5v2.7L320.5,58.9z
		 M315.3,29.4c0-1.3,0.5-2.4,1.4-3.3c0.9-0.9,2-1.4,3.3-1.4s2.4,0.5,3.3,1.4s1.4,2,1.4,3.3s-0.5,2.4-1.4,3.3c-0.9,0.9-2,1.4-3.3,1.4
		s-2.4-0.5-3.3-1.4S315.3,30.7,315.3,29.4z"/>
	<path class="st0" d="M343.1,58.9c1.2,0,2.1-0.4,2.8-1.2c0.6-0.8,1-1.9,1-3.3V36.8h8.3v17c0,1.6,0.4,2.8,1.2,3.7
		c0.8,0.9,1.8,1.3,3,1.3s2.2-0.4,3-1.3s1.2-2.1,1.2-3.7v-17h8.3v17c0,1.6,0.4,2.8,1.2,3.7c0.8,0.9,1.8,1.3,3,1.3s2.2-0.4,3-1.3
		s1.2-2.1,1.2-3.7v-17h8.3v17.5c0,1.4,0.3,2.5,1,3.3c0.6,0.8,1.6,1.2,2.8,1.2h1.5v8.3h-1.5c-3.5,0-6.2-1.3-8-3.9
		c-2,2.6-4.8,3.9-8.3,3.9c-3.6,0-6.4-1.4-8.4-4.1c-2,2.8-4.8,4.1-8.4,4.1s-6.3-1.3-8.3-3.9c-1.8,2.6-4.5,3.9-8,3.9h-1.5v-8.3
		L343.1,58.9L343.1,58.9z M357.2,29.7c0-1.3,0.4-2.3,1.3-3.2s1.9-1.3,3.2-1.3c1.2,0,2.3,0.4,3.1,1.3c0.9,0.9,1.3,1.9,1.3,3.2
		c0,1.2-0.4,2.3-1.3,3.1c-0.9,0.9-1.9,1.3-3.1,1.3c-1.3,0-2.3-0.4-3.2-1.3C357.6,32,357.2,30.9,357.2,29.7z M363.4,20.9
		c0-1.1,0.4-2.1,1.2-2.9c0.8-0.8,1.7-1.2,2.8-1.2c1.1,0,2.1,0.4,2.9,1.2s1.2,1.7,1.2,2.9c0,1.1-0.4,2-1.2,2.8
		c-0.8,0.8-1.7,1.2-2.9,1.2c-1.1,0-2-0.4-2.8-1.2S363.4,22,363.4,20.9z M369.9,26.6c0.9-0.9,1.9-1.3,3.1-1.3c1.3,0,2.3,0.4,3.2,1.3
		c0.9,0.9,1.3,1.9,1.3,3.2c0,1.2-0.4,2.3-1.3,3.1c-0.9,0.9-1.9,1.3-3.2,1.3c-1.2,0-2.2-0.4-3.1-1.3c-0.9-0.9-1.3-1.9-1.3-3.1
		C368.7,28.5,369.1,27.4,369.9,26.6z"/>
	<path class="st0" d="M392.8,67.2v-8.3h4.8c1.2,0,2.1-0.4,2.8-1.2c0.6-0.8,1-1.9,1-3.3V36.8h8.3v17.5c0,1.4,0.3,2.5,1,3.3
		c0.6,0.8,1.6,1.2,2.8,1.2h4.8v8.3h-4.8c-3.4,0-6.1-1.2-7.9-3.7c-1.9,2.5-4.6,3.7-8,3.7L392.8,67.2L392.8,67.2z M396.7,26.4
		c0.9-0.9,2-1.3,3.2-1.3s2.3,0.4,3.2,1.3c0.9,0.9,1.3,2,1.3,3.2c0,1.3-0.4,2.3-1.3,3.2s-1.9,1.3-3.2,1.3c-1.3,0-2.3-0.4-3.2-1.3
		c-0.9-0.9-1.3-2-1.3-3.2C395.4,28.3,395.8,27.3,396.7,26.4z M406.6,29.6c0-1.3,0.4-2.3,1.3-3.2s2-1.3,3.2-1.3
		c1.3,0,2.3,0.4,3.2,1.3c0.9,0.9,1.3,2,1.3,3.2c0,1.3-0.4,2.3-1.3,3.2s-2,1.3-3.2,1.3c-1.3,0-2.3-0.4-3.2-1.3
		C407.1,31.9,406.6,30.9,406.6,29.6z"/>
	<path class="st0" d="M419,58.9c1.2,0,2.1-0.4,2.7-1.2c0.6-0.8,1-1.9,1-3.3V19.8h8.3v34.5c0,1.4,0.3,2.5,1,3.3
		c0.6,0.8,1.6,1.2,2.7,1.2h1.9v8.3h-1.9c-3.4,0-6-1.2-7.9-3.7c-1.8,2.5-4.4,3.7-7.8,3.7h-2v-8.3L419,58.9L419,58.9z"/>
	<path class="st0" d="M435.4,58.9h1.7c1.2,0,2.1-0.4,2.8-1.2c0.6-0.8,0.9-1.9,0.9-3.3V19.8h8.4v34.5c0,3.8-1.1,6.9-3.3,9.3
		c-2.2,2.4-5.1,3.6-8.8,3.6h-1.7V58.9z"/>
	<path class="st0" d="M472.1,67.2v-8.3h18v-6.2c0-2.2-0.6-4-1.9-5.4s-2.9-2.1-4.9-2.1c-1.7,0-3.3,0.5-4.9,1.5l-3.3-7.4
		c2.5-1.6,5.2-2.4,8.2-2.4c4.3,0,8,1.5,10.8,4.5c2.9,3,4.3,6.8,4.3,11.3v6.2h4.6v8.3H472.1z"/>
	<path class="st0" d="M503.9,58.9c1.2,0,2.1-0.4,2.7-1.2c0.6-0.8,1-1.9,1-3.3V19.8h8.3v34.5c0,1.4,0.3,2.5,1,3.3
		c0.6,0.8,1.6,1.2,2.7,1.2h1.9v8.3h-1.9c-3.4,0-6-1.2-7.9-3.7c-1.8,2.5-4.4,3.7-7.8,3.7H502v-8.3L503.9,58.9L503.9,58.9z"/>
	<path class="st0" d="M522,58.9c1.2,0,2.1-0.4,2.8-1.2c0.6-0.8,0.9-1.9,0.9-3.3V36.8h8.4v17.5c0,1.4,0.3,2.5,0.9,3.3
		c0.6,0.8,1.5,1.2,2.8,1.2h1.7v8.3h-1.7c-3.4,0-6.1-1.2-7.8-3.7c-1.9,2.5-4.6,3.7-8,3.7h-1.7v-8.3L522,58.9L522,58.9z M526.4,72.4
		c0.9-0.9,2-1.4,3.3-1.4s2.4,0.5,3.3,1.4c0.9,0.9,1.4,2,1.4,3.3s-0.5,2.4-1.4,3.3s-2,1.3-3.3,1.3s-2.4-0.5-3.3-1.4
		c-0.9-0.9-1.4-2-1.4-3.3C525,74.5,525.5,73.4,526.4,72.4z"/>
	<path class="st0" d="M538.3,58.9h1.7c1.2,0,2.1-0.4,2.8-1.2c0.6-0.8,0.9-1.9,0.9-3.3V19.8h8.4v34.5c0,3.8-1.1,6.9-3.3,9.3
		s-5.1,3.6-8.8,3.6h-1.7L538.3,58.9L538.3,58.9z"/>
	<path class="st0" d="M569.1,67.2h-8.3V19.8h8.3V67.2z"/>
	<path class="st0" d="M592.2,49.2v-6.3h8.3v6.3c0,3.2,0.9,5.6,2.6,7.2c1.7,1.7,4.3,2.5,7.7,2.5h9.7c3.6,0,5.5-2,5.5-6.1v-16h8.3v16
		c0,4.3-1.3,7.8-3.8,10.5c-2.5,2.6-5.9,3.9-10,3.9h-9.7c-5.8,0-10.3-1.6-13.6-4.9C593.8,59,592.2,54.6,592.2,49.2z M609.8,72
		c0.9-0.9,2-1.4,3.3-1.4s2.4,0.5,3.3,1.4c0.9,0.9,1.4,2,1.4,3.3s-0.5,2.4-1.4,3.3s-2,1.4-3.3,1.4s-2.4-0.5-3.3-1.4
		c-0.9-0.9-1.4-2-1.4-3.3C608.5,74,608.9,72.9,609.8,72z"/>
	<path class="st0" d="M644.6,41.1c3-3,6.5-4.4,10.8-4.4c4.5,0,8.2,1.5,11,4.6s4.3,7,4.3,11.8v5.8h4.2v8.3h-4.3
		c-0.4,4.1-1.9,7.5-4.6,10.1c-2.7,2.7-6.2,4-10.6,4c-2.5,0-5-0.5-7.4-1.6s-4.3-2.6-5.7-4.5l5.8-5.5c0.8,1,1.9,1.8,3.2,2.3
		c1.3,0.6,2.6,0.9,4,0.9c2,0,3.6-0.6,4.9-1.7c1.3-1.2,2-2.5,2.1-4h-6.4c-4.5,0-8.2-1.5-11.2-4.4s-4.5-6.6-4.5-10.9
		C640.2,47.7,641.7,44.1,644.6,41.1z M648.5,51.9c0,2.1,0.7,3.7,2.1,5c1.4,1.3,3.1,1.9,5.3,1.9h6.4v-6.5c0-2.1-0.6-3.9-1.9-5.3
		c-1.3-1.4-2.9-2.1-5-2.1c-1.9,0-3.5,0.7-4.9,2S648.5,50,648.5,51.9z"/>
	<path class="st0" d="M675.5,58.9c1.2,0,2.1-0.4,2.7-1.2c0.6-0.8,1-1.9,1-3.3V36.8h8.3v17.5c0,1.4,0.3,2.5,1,3.3
		c0.6,0.8,1.6,1.2,2.7,1.2h1.9v8.3h-1.9c-3.4,0-6-1.2-7.9-3.7c-1.8,2.5-4.4,3.7-7.8,3.7h-1.9v-8.3L675.5,58.9L675.5,58.9z M680.1,26
		c0.9-0.9,2-1.4,3.3-1.4s2.4,0.5,3.3,1.4c0.9,0.9,1.4,2,1.4,3.3s-0.5,2.4-1.4,3.3c-0.9,0.9-2,1.4-3.3,1.4s-2.4-0.5-3.3-1.4
		c-0.9-0.9-1.4-2-1.4-3.3C678.7,28.1,679.2,26.9,680.1,26z"/>
	<path class="st0" d="M720.3,58.9v-2.7c0-3.4-1-6.1-3.1-8.1s-4.9-2.9-8.4-2.9h-13v-8.3h13.4c5.5,0,10.1,1.8,13.8,5.3
		s5.6,8.1,5.6,13.6l0.1,3.2v8.3h-36.8V59L720.3,58.9L720.3,58.9z M707.1,76.1c0-1.3,0.5-2.4,1.4-3.3s2-1.4,3.3-1.4s2.4,0.5,3.3,1.4
		c0.9,0.9,1.4,2,1.4,3.3s-0.5,2.4-1.4,3.3s-2,1.4-3.3,1.4s-2.4-0.5-3.3-1.4C707.6,78.5,707.1,77.4,707.1,76.1z"/>
	<path class="st0" d="M754.5,41.3c3-3,6.5-4.4,10.7-4.4h14.7v17.5c0,1.4,0.3,2.5,0.9,3.3c0.6,0.8,1.5,1.2,2.8,1.2h1.9v8.3h-1.9
		c-3.9,0-6.7-1.6-8.3-4.7c-2.5,3.1-5.8,4.7-10.1,4.7c-4.2,0-7.8-1.5-10.8-4.4s-4.4-6.5-4.4-10.7C750,47.9,751.5,44.3,754.5,41.3z
		 M756.1,29.6c0-1.3,0.4-2.3,1.3-3.2c0.9-0.9,2-1.3,3.2-1.3c1.3,0,2.3,0.4,3.2,1.3c0.9,0.9,1.3,2,1.3,3.2c0,1.3-0.4,2.3-1.3,3.2
		c-0.9,0.9-2,1.3-3.2,1.3c-1.3,0-2.3-0.4-3.2-1.3C756.6,31.9,756.1,30.9,756.1,29.6z M760.4,56.9c1.3,1.3,3,2,4.9,2
		c1.8,0,3.3-0.6,4.5-1.9s1.8-2.9,1.8-5v-6.9h-6.3c-1.9,0-3.5,0.7-4.9,2c-1.3,1.3-2,3-2,4.9S759,55.5,760.4,56.9z M767.4,29.6
		c0-1.3,0.4-2.3,1.3-3.2c0.9-0.9,1.9-1.3,3.2-1.3s2.3,0.4,3.2,1.3c0.9,0.9,1.3,2,1.3,3.2c0,1.3-0.4,2.3-1.3,3.2
		c-0.9,0.9-2,1.3-3.2,1.3c-1.3,0-2.3-0.4-3.2-1.3C767.9,31.9,767.4,30.9,767.4,29.6z"/>
	<path class="st0" d="M784.4,67.2v-8.3H814l-0.1-2.7c0-3.4-1.1-6.1-3.1-8.1c-2-1.9-4.8-2.9-8.4-2.9h-13.9v-8.3l19-17h11.1l-19.4,17
		h3.7c5.5,0,10.1,1.8,13.8,5.3s5.6,8.1,5.6,13.6v11.5L784.4,67.2L784.4,67.2z"/>
	<path class="st0" d="M822.7,72.8c0.6,0.2,1.4,0.4,2.3,0.4c3.8,0,5.7-2.2,5.7-6.6V36.8l8.3-0.1v22.1h5.5v8.3H839v1.3
		c0,3.8-1.1,6.9-3.4,9.3c-2.3,2.4-5.7,3.6-10.4,3.6c-1.7,0-3.3-0.2-4.8-0.7L822.7,72.8z"/>
	<path class="st0" d="M843.3,58.9h1.9c1.2,0,2.1-0.4,2.7-1.2c0.6-0.8,1-1.9,1-3.3V36.8h8.3v17c0,1.5,0.4,2.8,1.2,3.7
		c0.8,0.9,1.8,1.4,3,1.4s2.2-0.4,3-1.3s1.2-2.1,1.2-3.7v-17h8.4v17c0,1.6,0.4,2.8,1.2,3.7c0.8,0.9,1.8,1.3,3,1.3s2.2-0.4,3-1.3
		s1.2-2.1,1.2-3.7v-17h8.3v17c0,3.9-1.3,7.1-3.6,9.6c-2.4,2.5-5.4,3.7-8.9,3.7c-3.6,0-6.4-1.4-8.4-4.1c-2,2.8-4.8,4.1-8.4,4.1
		c-3.5,0-6.2-1.3-8.3-3.9c-1.8,2.6-4.5,3.9-8,3.9h-1.9L843.3,58.9L843.3,58.9z M859.2,29.7c0-1.3,0.4-2.3,1.3-3.2
		c0.9-0.9,1.9-1.3,3.1-1.3s2.3,0.4,3.1,1.3c0.9,0.9,1.3,1.9,1.3,3.2c0,1.2-0.4,2.2-1.3,3.1c-0.9,0.9-1.9,1.3-3.2,1.3
		s-2.3-0.4-3.1-1.3C859.6,32,859.2,30.9,859.2,29.7z M865.3,20.9c0-1.1,0.4-2.1,1.2-2.9c0.8-0.8,1.8-1.2,2.9-1.2
		c1.1,0,2,0.4,2.8,1.2s1.2,1.7,1.2,2.9c0,1.1-0.4,2-1.2,2.8s-1.7,1.2-2.8,1.2s-2.1-0.4-2.9-1.2C865.7,22.9,865.3,22,865.3,20.9z
		 M871.9,26.6c0.9-0.9,1.9-1.3,3.1-1.3c1.3,0,2.3,0.4,3.2,1.3s1.3,1.9,1.3,3.2c0,1.2-0.4,2.3-1.3,3.1c-0.9,0.9-1.9,1.3-3.2,1.3
		c-1.2,0-2.3-0.4-3.1-1.3c-0.9-0.9-1.3-1.9-1.3-3.1C870.6,28.5,871,27.4,871.9,26.6z"/>
</g>
<g>
	<path class="st1" d="M258.8,135.8c2.4-2.4,5.4-3.6,8.8-3.6h11.9v15.1c0,3.4,1.3,5,3.9,5h1.4v4.8h-1.4c-3.4,0-5.7-1.6-6.8-4.7
		c-2.1,3.1-5.1,4.7-9,4.7c-3.5,0-6.4-1.2-8.8-3.6c-2.4-2.4-3.6-5.4-3.6-8.8C255.1,141.2,256.4,138.2,258.8,135.8z M262.2,150.1
		c1.5,1.5,3.3,2.2,5.4,2.2c2,0,3.7-0.7,5.1-2.1s2-3.3,2-5.6v-7.7h-7.1c-2.1,0-3.9,0.8-5.4,2.3s-2.2,3.3-2.2,5.5
		C259.9,146.8,260.7,148.6,262.2,150.1z M261.2,126.5c0-0.8,0.3-1.5,0.8-2c0.6-0.6,1.2-0.8,2-0.8s1.5,0.3,2.1,0.8
		c0.6,0.6,0.9,1.2,0.9,2s-0.3,1.5-0.9,2c-0.6,0.6-1.3,0.8-2.1,0.8c-0.8,0-1.4-0.3-2-0.8C261.5,128,261.2,127.3,261.2,126.5z
		 M269.7,126.5c0-0.8,0.3-1.5,0.8-2c0.5-0.6,1.2-0.8,2-0.8s1.5,0.3,2,0.8c0.6,0.6,0.8,1.2,0.8,2s-0.3,1.5-0.8,2
		c-0.6,0.6-1.2,0.8-2,0.8s-1.5-0.3-2-0.8S269.7,127.3,269.7,126.5z"/>
	<path class="st1" d="M283.9,157.1v-4.8h1.3c2.6,0,3.9-1.7,3.9-5v-15.1h4.8v15.1c0,3-0.8,5.3-2.3,7.1c-1.6,1.8-3.7,2.7-6.4,2.7
		H283.9z M288.4,126.4c0-0.8,0.3-1.5,0.8-2.1c0.6-0.6,1.3-0.9,2.1-0.9c0.8,0,1.5,0.3,2.1,0.9c0.6,0.6,0.9,1.3,0.9,2.1
		s-0.3,1.5-0.8,2.1c-0.6,0.6-1.3,0.9-2.1,0.9c-0.8,0-1.5-0.3-2.1-0.9C288.7,127.9,288.4,127.2,288.4,126.4z"/>
	<path class="st1" d="M300.6,118.2h4.7v29.1c0,3.4,1.3,5,3.9,5h1.2v4.8h-1.2c-2.7,0-4.8-0.9-6.4-2.7s-2.3-4.2-2.3-7.1L300.6,118.2
		L300.6,118.2z"/>
	<path class="st1" d="M309.5,152.3h3.3c2.6,0,3.9-1.7,3.9-5v-15.1h4.8v15.1c0,3.4,1.3,5,3.9,5h3.3v4.8h-3.3c-2.9,0-5-1.1-6.3-3.4
		c-1.4,2.3-3.5,3.4-6.3,3.4h-3.3V152.3z M312.9,162.2c0.6-0.6,1.2-0.8,2-0.8s1.4,0.3,2,0.8c0.6,0.6,0.9,1.2,0.9,2s-0.3,1.4-0.9,2
		s-1.3,0.9-2,0.9c-0.8,0-1.5-0.3-2-0.9c-0.6-0.6-0.8-1.3-0.8-2C312,163.4,312.3,162.7,312.9,162.2z M321.4,162.2
		c0.5-0.6,1.2-0.8,2-0.8s1.4,0.3,2,0.8c0.6,0.6,0.9,1.2,0.9,2s-0.3,1.4-0.9,2s-1.3,0.9-2,0.9c-0.8,0-1.5-0.3-2-0.8
		c-0.5-0.6-0.8-1.2-0.8-2S320.8,162.7,321.4,162.2z"/>
	<path class="st1" d="M332.7,152.3v-20.2h4.7v7.5c4.4-5,8.8-7.5,13.3-7.5c3.5,0,6.4,1.2,8.6,3.6c2.2,2.4,3.3,5.5,3.3,9.3v2.2
		c0,3.1-0.8,5.5-2.3,7.2s-3.7,2.6-6.6,2.6h-26v-4.8L332.7,152.3L332.7,152.3z M353.7,152.3c2.7,0,4.1-1.7,4.1-5v-2.2
		c0-2.5-0.7-4.5-2-6c-1.4-1.5-3.2-2.2-5.6-2.2c-3.8,0-8,2.9-12.8,8.6v6.8L353.7,152.3L353.7,152.3z"/>
	<path class="st1" d="M371.2,135.6c2.4-2.4,5.4-3.6,8.8-3.6c3.7,0,6.7,1.3,9.1,3.8c2.3,2.5,3.5,5.8,3.5,9.7v10.3
		c0,3.6-1.1,6.7-3.3,9.1c-2.2,2.4-5.2,3.6-9,3.6c-2.1,0-4.1-0.4-6-1.3c-1.9-0.9-3.5-2.1-4.6-3.6l3.3-3.1c0.8,1,1.8,1.8,3.1,2.4
		c1.3,0.6,2.6,0.9,4,0.9c2.2,0,4-0.6,5.3-1.9c1.3-1.3,2.1-2.8,2.3-4.7h-7.1c-3.8,0-6.9-1.2-9.4-3.6c-2.5-2.4-3.7-5.4-3.7-9
		C367.5,141,368.8,138.1,371.2,135.6z M374.7,150.1c1.5,1.5,3.5,2.2,6,2.2h7.1v-7.2c0-2.5-0.7-4.5-2.1-6c-1.4-1.6-3.3-2.3-5.6-2.3
		c-2.1,0-4,0.7-5.5,2.2s-2.3,3.3-2.3,5.5C372.3,146.8,373.1,148.7,374.7,150.1z"/>
	<path class="st1" d="M411.1,137.1h4.8v16.7c0,3,0.8,5.4,2.5,7.2c1.6,1.8,3.7,2.7,6.1,2.7c2.5,0,4.5-0.9,6.2-2.7
		c1.6-1.8,2.5-4.2,2.5-7.2v-35.7h4.7v29.1c0,3.4,1.3,5,3.9,5h1.4v4.8h-1.4c-1.7,0-3-0.6-4-1.7c-0.3,3.9-1.8,7.1-4.3,9.5
		s-5.5,3.6-9.1,3.6c-3.8,0-6.9-1.4-9.5-4.1s-3.9-6.2-3.9-10.5L411.1,137.1L411.1,137.1z"/>
	<path class="st1" d="M442.3,152.3h3.3c2.6,0,3.9-1.7,3.9-5v-15.1h4.8v15.1c0,3.4,1.3,5,3.9,5h3.3v4.8h-3.3c-2.9,0-5-1.1-6.3-3.4
		c-1.4,2.3-3.5,3.4-6.3,3.4h-3.3V152.3z M445.6,162.2c0.6-0.6,1.2-0.8,2-0.8s1.4,0.3,2,0.8c0.6,0.6,0.9,1.2,0.9,2s-0.3,1.4-0.9,2
		s-1.3,0.9-2,0.9c-0.8,0-1.5-0.3-2-0.9c-0.6-0.6-0.8-1.3-0.8-2C444.8,163.4,445.1,162.7,445.6,162.2z M454.1,162.2
		c0.5-0.6,1.2-0.8,2-0.8s1.4,0.3,2,0.8c0.6,0.6,0.9,1.2,0.9,2s-0.3,1.4-0.9,2s-1.3,0.9-2,0.9c-0.8,0-1.5-0.3-2-0.8
		c-0.5-0.6-0.8-1.2-0.8-2S453.6,162.7,454.1,162.2z"/>
	<path class="st1" d="M460.5,152.3h11.7l-7.9-11.8v-8.3h18.8c6.7,0,10,2.4,10,7.1c0,1-0.2,2.1-0.6,3.2c-0.4,1.1-1.1,2.3-2.1,3.5
		c-1,1.3-1.8,2.3-2.4,3s-1.6,1.8-3.1,3.4h11.9l0.1,4.8h-36.3v-4.9H460.5z M469.9,140.2l8,12.1h1.5c0.4-0.4,0.9-1,1.7-1.8
		c0.8-0.8,1.4-1.5,1.7-1.9c0.4-0.4,0.9-1,1.5-1.7s1.1-1.3,1.4-1.7c0.3-0.5,0.6-1,1-1.5c0.3-0.6,0.6-1.1,0.7-1.5
		c0.1-0.5,0.2-0.9,0.2-1.3c0-1.5-0.5-2.5-1.5-3s-2.6-0.8-4.8-0.8h-11.5L469.9,140.2L469.9,140.2z M475.3,126.4
		c0-0.8,0.3-1.5,0.8-2.1c0.6-0.6,1.3-0.9,2.1-0.9c0.8,0,1.5,0.3,2.1,0.9c0.6,0.6,0.9,1.3,0.9,2.1s-0.3,1.5-0.8,2.1
		c-0.6,0.6-1.3,0.9-2.1,0.9c-0.8,0-1.5-0.3-2.1-0.9C475.5,127.9,475.3,127.2,475.3,126.4z"/>
	<path class="st1" d="M495.8,152.3h1.2c2.6,0,3.9-1.7,3.9-5v-15.1h4.8v14.5c0,1.8,0.4,3.2,1.3,4.2s2,1.5,3.3,1.5s2.4-0.5,3.3-1.5
		s1.3-2.4,1.3-4.2v-14.5h4.7v14.5c0,1.8,0.4,3.2,1.3,4.2c0.9,1,2,1.5,3.3,1.5s2.4-0.5,3.3-1.5c0.9-1,1.3-2.4,1.3-4.2v-14.5h4.8v15.1
		c0,3.4,1.3,5,3.9,5h1.2v4.8h-1.2c-3,0-5.2-1.2-6.5-3.7c-1.6,2.5-3.9,3.7-6.8,3.7c-3.2,0-5.5-1.3-7-4c-1.6,2.7-3.9,4-7,4
		c-3,0-5.3-1.2-6.8-3.7c-1.2,2.5-3.4,3.7-6.5,3.7h-1.2v-4.8H495.8z M510.1,126.6c0-0.8,0.3-1.4,0.8-2s1.2-0.8,2-0.8
		c0.8,0,1.4,0.3,2,0.8c0.6,0.6,0.8,1.2,0.8,2s-0.3,1.5-0.8,2c-0.6,0.5-1.2,0.8-2,0.8s-1.5-0.3-2-0.8
		C510.4,128,510.1,127.4,510.1,126.6z M515.4,118.2c0.5-0.5,1.1-0.7,1.8-0.7s1.3,0.2,1.8,0.7s0.7,1.1,0.7,1.8s-0.2,1.3-0.7,1.8
		s-1.1,0.8-1.8,0.8s-1.3-0.3-1.8-0.8s-0.7-1.1-0.7-1.8S514.9,118.7,515.4,118.2z M519.5,124.6c0.5-0.6,1.2-0.8,1.9-0.8
		c0.8,0,1.4,0.3,2,0.8c0.6,0.6,0.8,1.2,0.8,2s-0.3,1.5-0.8,2c-0.6,0.6-1.2,0.8-2,0.8s-1.4-0.3-2-0.8c-0.5-0.5-0.8-1.2-0.8-2
		C518.7,125.8,519,125.1,519.5,124.6z"/>
	<path class="st1" d="M538.1,152.3h2.9c1.3,0,2.3-0.4,3-1.3c0.7-0.9,1-2.1,1-3.7v-15.1h4.8v15.1c0,3-0.8,5.3-2.4,7.1
		c-1.6,1.8-3.8,2.7-6.5,2.7H538v-4.8H538.1z M540.4,126.5c0-0.8,0.3-1.5,0.8-2c0.6-0.6,1.2-0.8,2-0.8s1.5,0.3,2.1,0.8
		c0.6,0.6,0.9,1.2,0.9,2s-0.3,1.5-0.9,2c-0.6,0.6-1.3,0.8-2.1,0.8s-1.4-0.3-2-0.8C540.6,128,540.4,127.3,540.4,126.5z M548.8,126.5
		c0-0.8,0.3-1.5,0.8-2c0.5-0.6,1.2-0.8,2-0.8s1.5,0.3,2,0.8c0.6,0.6,0.8,1.2,0.8,2s-0.3,1.5-0.8,2c-0.6,0.6-1.2,0.8-2,0.8
		s-1.5-0.3-2-0.8S548.8,127.3,548.8,126.5z"/>
	<path class="st1" d="M588.4,140.9H570v-4h18.4V140.9z"/>
	<path class="st1" d="M610.6,135.8c2.4-2.4,5.4-3.6,8.8-3.6h11.9v15.1c0,3.4,1.3,5,3.9,5h1.4v4.8h-1.4c-3.4,0-5.7-1.6-6.8-4.7
		c-2.1,3.1-5.1,4.7-9,4.7c-3.5,0-6.4-1.2-8.8-3.6c-2.4-2.4-3.6-5.4-3.6-8.8C606.9,141.2,608.1,138.2,610.6,135.8z M613.9,150.1
		c1.5,1.5,3.3,2.2,5.4,2.2c2,0,3.7-0.7,5.1-2.1s2-3.3,2-5.6v-7.7h-7.1c-2.1,0-3.9,0.8-5.4,2.3s-2.2,3.3-2.2,5.5
		C611.7,146.8,612.4,148.6,613.9,150.1z M613,126.5c0-0.8,0.3-1.5,0.8-2c0.6-0.6,1.2-0.8,2-0.8s1.5,0.3,2.1,0.8
		c0.6,0.6,0.9,1.2,0.9,2s-0.3,1.5-0.9,2c-0.6,0.6-1.3,0.8-2.1,0.8s-1.4-0.3-2-0.8C613.3,128,613,127.3,613,126.5z M621.4,126.5
		c0-0.8,0.3-1.5,0.8-2c0.5-0.6,1.2-0.8,2-0.8s1.5,0.3,2,0.8c0.6,0.6,0.8,1.2,0.8,2s-0.3,1.5-0.8,2c-0.6,0.6-1.2,0.8-2,0.8
		s-1.5-0.3-2-0.8S621.4,127.3,621.4,126.5z"/>
	<path class="st1" d="M635.6,152.3h7.5c-1.2-0.8-2.2-1.9-2.9-3.3c-0.7-1.3-1.1-2.8-1.1-4.4c0-3.5,1.2-6.4,3.7-8.8
		c2.4-2.4,5.4-3.6,8.8-3.6c3.4,0,6.4,1.2,8.8,3.6c2.4,2.4,3.7,5.4,3.7,8.8c0,3.5-1.2,6.4-3.6,8.8c-2.4,2.4-5.4,3.6-8.8,3.6h-15.9
		v-4.7H635.6z M646.1,150.1c1.5,1.5,3.3,2.2,5.4,2.2c2.1,0,3.9-0.7,5.4-2.2s2.2-3.3,2.2-5.4c0-2.1-0.7-4-2.2-5.5s-3.3-2.3-5.4-2.3
		c-2.1,0-3.9,0.8-5.4,2.3s-2.2,3.3-2.2,5.5C643.8,146.8,644.6,148.6,646.1,150.1z"/>
	<path class="st1" d="M670.6,118.2h4.7v29.1c0,3.4,1.3,5,3.9,5h1.2v4.8h-1.2c-2.7,0-4.8-0.9-6.4-2.7s-2.3-4.2-2.3-7.1L670.6,118.2
		L670.6,118.2z"/>
	<path class="st1" d="M679.5,152.3h8.4c-1.3-0.9-2.4-2.2-3.2-3.7s-1.2-3.2-1.2-4.9c0-3.4,1.1-6.1,3.4-8.3c2.3-2.2,5.2-3.3,8.6-3.3
		c3.5,0,6.5,1.2,8.9,3.5l-2.7,3.6c-1.8-1.6-3.8-2.4-6-2.4c-2.1,0-3.9,0.7-5.4,2.1c-1.5,1.4-2.2,3.2-2.2,5.3c0,2.2,0.8,4,2.3,5.6
		s3.3,2.4,5.4,2.4H706v4.8h-26.6L679.5,152.3L679.5,152.3z"/>
	<path class="st1" d="M724.7,142.4v-5.3h4.8v5.3c0,3.3,0.8,5.8,2.5,7.4c1.7,1.6,4.2,2.4,7.6,2.4h8.1c3.3,0,5-1.9,5-5.8V132h4.7v14.4
		c0,3.2-0.9,5.8-2.6,7.7c-1.7,1.9-4.1,2.9-7.1,2.9h-8.1c-4.8,0-8.5-1.3-11.1-3.8S724.7,147.1,724.7,142.4z M734.3,126.5
		c0-0.8,0.3-1.5,0.8-2c0.6-0.6,1.2-0.8,2-0.8s1.5,0.3,2,0.8c0.6,0.6,0.8,1.2,0.8,2s-0.3,1.5-0.8,2c-0.6,0.6-1.2,0.8-2,0.8
		s-1.5-0.3-2-0.8C734.5,128,734.3,127.3,734.3,126.5z M743.7,124.5c0.5-0.6,1.2-0.8,2-0.8s1.5,0.3,2,0.8c0.6,0.6,0.8,1.2,0.8,2
		s-0.3,1.5-0.8,2c-0.6,0.6-1.2,0.8-2,0.8s-1.5-0.3-2-0.8s-0.8-1.2-0.8-2S743.2,125,743.7,124.5z"/>
	<path class="st1" d="M777.7,152.3c1.4,0,2.5-0.4,3.2-1.3c0.7-0.9,1.1-2.1,1.1-3.7v-29.1h4.7v29.1c0,3-0.8,5.3-2.5,7.1
		s-3.8,2.7-6.5,2.7h-14.8v-4.8H777.7z M766.1,149.8v-29.1h4.7v29.1H766.1z"/>
	<path class="st1" d="M797,135.6c2.4-2.4,5.4-3.6,8.8-3.6c3.7,0,6.7,1.3,9.1,3.8c2.3,2.5,3.5,5.8,3.5,9.7v10.3
		c0,3.6-1.1,6.7-3.3,9.1c-2.2,2.4-5.2,3.6-9,3.6c-2.1,0-4.1-0.4-6-1.3c-1.9-0.9-3.5-2.1-4.6-3.6l3.3-3.1c0.8,1,1.8,1.8,3.1,2.4
		c1.3,0.6,2.6,0.9,4,0.9c2.2,0,4-0.6,5.3-1.9c1.3-1.3,2.1-2.8,2.3-4.7h-7.1c-3.8,0-6.9-1.2-9.4-3.6c-2.5-2.4-3.7-5.4-3.7-9
		C793.3,141,794.6,138.1,797,135.6z M800.5,150.1c1.5,1.5,3.5,2.2,6,2.2h7.1v-7.2c0-2.5-0.7-4.5-2.1-6c-1.4-1.6-3.3-2.3-5.6-2.3
		c-2.1,0-4,0.7-5.5,2.2s-2.3,3.3-2.3,5.5C798.1,146.8,798.9,148.7,800.5,150.1z"/>
	<path class="st1" d="M825,118.2h4.7v29.1c0,3.4,1.3,5,3.9,5h1.2v4.8h-1.2c-2.7,0-4.8-0.9-6.4-2.7s-2.3-4.2-2.3-7.1L825,118.2
		L825,118.2z"/>
	<path class="st1" d="M842.3,152.3c-1.3-0.9-2.4-2.1-3.2-3.6s-1.2-3.1-1.2-4.8c0-3.2,1.2-6,3.5-8.3s5.2-3.4,8.6-3.4
		c3.5,0,6.5,1.2,8.9,3.7s3.6,5.5,3.6,9.1v7.3h4.9v4.8h-33.6v-4.8H842.3z M844.6,150.1c1.5,1.5,3.3,2.2,5.4,2.2h7.7v-7.7
		c0-2.2-0.7-4-2.2-5.5s-3.3-2.2-5.4-2.2c-2.1,0-3.9,0.8-5.4,2.3s-2.2,3.3-2.2,5.5C842.4,146.8,843.1,148.6,844.6,150.1z
		 M842.6,126.1c0-0.8,0.3-1.5,0.8-2c0.6-0.6,1.2-0.8,2-0.8s1.4,0.3,2,0.8c0.6,0.6,0.9,1.2,0.9,2s-0.3,1.5-0.9,2
		c-0.6,0.6-1.3,0.8-2,0.8c-0.8,0-1.5-0.3-2-0.8C842.9,127.6,842.6,126.9,842.6,126.1z M852.5,124.1c0.6-0.6,1.2-0.8,2-0.8
		s1.4,0.3,2,0.8c0.6,0.6,0.9,1.2,0.9,2s-0.3,1.5-0.9,2c-0.6,0.6-1.3,0.8-2,0.8c-0.8,0-1.5-0.3-2-0.8c-0.6-0.6-0.8-1.2-0.8-2
		C851.6,125.3,851.9,124.6,852.5,124.1z"/>
	<path class="st1" d="M866.5,152.3h7.5c-1.2-0.8-2.2-1.9-2.9-3.3c-0.7-1.3-1.1-2.8-1.1-4.4c0-3.5,1.2-6.4,3.7-8.8
		c2.4-2.4,5.4-3.6,8.8-3.6c3.4,0,6.4,1.2,8.8,3.6c2.4,2.4,3.7,5.4,3.7,8.8c0,3.5-1.2,6.4-3.6,8.8c-2.4,2.4-5.4,3.6-8.8,3.6h-15.9
		v-4.7H866.5z M877,150.1c1.5,1.5,3.3,2.2,5.4,2.2c2.1,0,3.9-0.7,5.4-2.2s2.2-3.3,2.2-5.4c0-2.1-0.7-4-2.2-5.5s-3.3-2.3-5.4-2.3
		c-2.1,0-3.9,0.8-5.4,2.3s-2.2,3.3-2.2,5.5C874.7,146.8,875.5,148.6,877,150.1z"/>
</g>
</svg>
